<mxfile host="app.diagrams.net" modified="2021-03-12T19:39:15.812Z" agent="5.0 (Windows NT 10.0; Win64; x64) AppleWebKit/537.36 (KHTML, like Gecko) Chrome/88.0.4324.190 Safari/537.36" etag="QwSvXMrc7D0ICBHmtJcm" version="14.4.7" type="github">
  <diagram id="ei_NqoiC6olyjcbu0N7d" name="Page-1">
    <mxGraphModel dx="1422" dy="762" grid="1" gridSize="10" guides="1" tooltips="1" connect="1" arrows="1" fold="1" page="1" pageScale="1" pageWidth="1654" pageHeight="1169" math="0" shadow="0">
      <root>
        <mxCell id="0" />
        <mxCell id="1" parent="0" />
        <mxCell id="NDDRYkeWl61_HziP8CwQ-1" value="Teleport kapu lerakÃ¡sa" style="shape=umlFrame;whiteSpace=wrap;html=1;width=180;height=30;" vertex="1" parent="1">
          <mxGeometry x="30" y="60" width="710" height="330" as="geometry" />
        </mxCell>
        <mxCell id="NDDRYkeWl61_HziP8CwQ-2" style="edgeStyle=orthogonalEdgeStyle;rounded=0;orthogonalLoop=1;jettySize=auto;html=1;exitX=1;exitY=0.5;exitDx=0;exitDy=0;entryX=0.5;entryY=1;entryDx=0;entryDy=0;endArrow=none;endFill=0;" edge="1" parent="1" source="NDDRYkeWl61_HziP8CwQ-3" target="NDDRYkeWl61_HziP8CwQ-4">
          <mxGeometry relative="1" as="geometry">
            <Array as="points">
              <mxPoint x="590" y="120" />
              <mxPoint x="590" y="230" />
            </Array>
          </mxGeometry>
        </mxCell>
        <mxCell id="NDDRYkeWl61_HziP8CwQ-3" value="t: Telepes" style="html=1;" vertex="1" parent="1">
          <mxGeometry x="360" y="100" width="90" height="40" as="geometry" />
        </mxCell>
        <mxCell id="NDDRYkeWl61_HziP8CwQ-4" value="a: Aszteroida" style="html=1;" vertex="1" parent="1">
          <mxGeometry x="580" y="190" width="90" height="40" as="geometry" />
        </mxCell>
        <mxCell id="NDDRYkeWl61_HziP8CwQ-5" value="k: Teleportkapu" style="html=1;" vertex="1" parent="1">
          <mxGeometry x="480" y="310" width="110" height="40" as="geometry" />
        </mxCell>
        <mxCell id="NDDRYkeWl61_HziP8CwQ-6" value="Controller" style="html=1;" vertex="1" parent="1">
          <mxGeometry x="80" y="280" width="90" height="40" as="geometry" />
        </mxCell>
        <mxCell id="NDDRYkeWl61_HziP8CwQ-7" value="3. &amp;lt;&amp;lt;create&amp;gt;&amp;gt; Telepes(a)" style="html=1;verticalAlign=bottom;endArrow=none;entryX=0;entryY=0.5;entryDx=0;entryDy=0;endFill=0;" edge="1" parent="1" target="NDDRYkeWl61_HziP8CwQ-3">
          <mxGeometry x="-0.5138" y="41" width="80" relative="1" as="geometry">
            <mxPoint x="170" y="280" as="sourcePoint" />
            <mxPoint x="620" y="290" as="targetPoint" />
            <mxPoint x="1" as="offset" />
          </mxGeometry>
        </mxCell>
        <mxCell id="NDDRYkeWl61_HziP8CwQ-8" value="" style="html=1;verticalAlign=bottom;endArrow=none;entryX=0;entryY=0.5;entryDx=0;entryDy=0;endFill=0;" edge="1" parent="1" target="NDDRYkeWl61_HziP8CwQ-4">
          <mxGeometry x="0.1692" y="-40" width="80" relative="1" as="geometry">
            <mxPoint x="170" y="290" as="sourcePoint" />
            <mxPoint x="410" y="190" as="targetPoint" />
            <mxPoint as="offset" />
          </mxGeometry>
        </mxCell>
        <mxCell id="NDDRYkeWl61_HziP8CwQ-9" value="2. &amp;lt;&amp;lt;create&amp;gt;&amp;gt; Teleporlkapu()" style="html=1;verticalAlign=bottom;endArrow=none;entryX=0;entryY=0.5;entryDx=0;entryDy=0;endFill=0;" edge="1" parent="1" target="NDDRYkeWl61_HziP8CwQ-5">
          <mxGeometry x="-0.4872" y="20" width="80" relative="1" as="geometry">
            <mxPoint x="170" y="310" as="sourcePoint" />
            <mxPoint x="510" y="310" as="targetPoint" />
            <mxPoint as="offset" />
          </mxGeometry>
        </mxCell>
        <mxCell id="NDDRYkeWl61_HziP8CwQ-10" value="1. &amp;lt;&amp;lt;create&amp;gt;&amp;gt; Aszteroida()" style="html=1;verticalAlign=bottom;endArrow=block;" edge="1" parent="1">
          <mxGeometry x="1" y="-104" width="80" relative="1" as="geometry">
            <mxPoint x="180" y="239.5" as="sourcePoint" />
            <mxPoint x="220" y="210" as="targetPoint" />
            <mxPoint x="38" y="-54" as="offset" />
          </mxGeometry>
        </mxCell>
        <mxCell id="NDDRYkeWl61_HziP8CwQ-17" value="" style="html=1;verticalAlign=bottom;endArrow=block;" edge="1" parent="1">
          <mxGeometry x="0.0566" y="11" width="80" relative="1" as="geometry">
            <mxPoint x="270" y="260" as="sourcePoint" />
            <mxPoint x="400" y="230" as="targetPoint" />
            <mxPoint as="offset" />
          </mxGeometry>
        </mxCell>
        <mxCell id="NDDRYkeWl61_HziP8CwQ-19" value="" style="html=1;verticalAlign=bottom;endArrow=block;" edge="1" parent="1">
          <mxGeometry x="0.0566" y="11" width="80" relative="1" as="geometry">
            <mxPoint x="210" y="304.5" as="sourcePoint" />
            <mxPoint x="310" y="310" as="targetPoint" />
            <mxPoint as="offset" />
          </mxGeometry>
        </mxCell>
        <mxCell id="NDDRYkeWl61_HziP8CwQ-20" value="" style="html=1;verticalAlign=bottom;endArrow=block;" edge="1" parent="1">
          <mxGeometry x="0.0566" y="11" width="80" relative="1" as="geometry">
            <mxPoint x="280" y="660" as="sourcePoint" />
            <mxPoint x="280" y="660" as="targetPoint" />
            <mxPoint as="offset" />
          </mxGeometry>
        </mxCell>
        <mxCell id="NDDRYkeWl61_HziP8CwQ-21" value="" style="html=1;verticalAlign=bottom;endArrow=block;" edge="1" parent="1">
          <mxGeometry x="0.0566" y="11" width="80" relative="1" as="geometry">
            <mxPoint x="365" y="294.5" as="sourcePoint" />
            <mxPoint x="365" y="294.5" as="targetPoint" />
            <mxPoint as="offset" />
          </mxGeometry>
        </mxCell>
        <mxCell id="NDDRYkeWl61_HziP8CwQ-22" value="4. HajoErkezik(t)" style="text;html=1;align=center;verticalAlign=middle;resizable=0;points=[];autosize=1;" vertex="1" parent="1">
          <mxGeometry x="480" y="90" width="100" height="20" as="geometry" />
        </mxCell>
        <mxCell id="NDDRYkeWl61_HziP8CwQ-23" value="" style="endArrow=classic;html=1;" edge="1" parent="1">
          <mxGeometry width="50" height="50" relative="1" as="geometry">
            <mxPoint x="530" y="110" as="sourcePoint" />
            <mxPoint x="560" y="110" as="targetPoint" />
            <Array as="points">
              <mxPoint x="480" y="110" />
            </Array>
          </mxGeometry>
        </mxCell>
        <mxCell id="NDDRYkeWl61_HziP8CwQ-29" value="5. AddRakter(k)" style="html=1;verticalAlign=bottom;endArrow=block;" edge="1" parent="1">
          <mxGeometry x="-0.2954" y="24" width="80" relative="1" as="geometry">
            <mxPoint x="270" y="179.5" as="sourcePoint" />
            <mxPoint x="310" y="150" as="targetPoint" />
            <mxPoint as="offset" />
          </mxGeometry>
        </mxCell>
      </root>
    </mxGraphModel>
  </diagram>
</mxfile>
